# xmcd
#
# Track frame offsets:
#	150
#	8224
#	26408
#	48390
#	56287
#	67187
#	75030
#	82811
#	93542
#	113957
#	131615
#
# Disc length: 1838 seconds
#
# Revision: 1
# Processed by: cddbd v1.5.2PL0 Copyright (c) Steve Scherf et al.
# Submitted via: audiograbber 1.83.01
#
DISCID=7d072c0b
DTITLE=The Famous Haydell Sisters - Stripped Down
DYEAR=2015
DGENRE=Country/Comedy
TTITLE0=American Lover
TTITLE1=Hair Today, Gone Tomorrow
TTITLE2=Your Broken Heart
TTITLE3=With My Love
TTITLE4=OSO
TTITLE5=The Woodpecker Song
TTITLE6=Girl With Painted-On Jeans
TTITLE7=Seven Seconds (Too Short A Ride)
TTITLE8=You Can Have Him
TTITLE9=YOLO
TTITLE10=The Epilogue
EXTD=For more information: thefamoushaydellsisters.com
EXTT0=
EXTT1=
EXTT2=
EXTT3=
EXTT4=
EXTT5=
EXTT6=
EXTT7=
EXTT8=
EXTT9=
EXTT10=
PLAYORDER=
